<svg xmlns="http://www.w3.org/2000/svg" width="80" height="80" fill="none" xmlns:v="https://vecta.io/nano"><path fill-rule="evenodd" d="M80 24.573V11.835C80 5.298 74.702 0 68.166 0S56.331 5.298 56.331 11.835v12.738c.009 5.732 4.122 10.635 9.765 11.642V76h-3.023V46.56a2 2 0 0 0-.985-1.724L41.015 32.438a2 2 0 0 0-2.028 0L17.914 44.835a2 2 0 0 0-.986 1.724V76H2a2 2 0 1 0 0 4h76a2 2 0 1 0 0-4h-7.904V36.236c5.707-.948 9.894-5.879 9.904-11.663zm-59.073 23.13l19.074-11.221 19.072 11.221V76h-16.9V62.38a2 2 0 1 0-4 0V76H20.927V47.703zm39.404-35.868v12.738h0c.006 3.526 2.364 6.614 5.764 7.549v-7.127l-3.581-3.581a2 2 0 0 1 .886-3.368 2 2 0 0 1 1.942.54l.753.753v-8.016a2 2 0 1 1 4 0v2.002l.511-.514a2 2 0 0 1 3.377.873 2 2 0 0 1-.541 1.947l-3.347 3.367v13.159A7.84 7.84 0 0 0 76 24.573V11.835C76 7.508 72.492 4 68.166 4s-7.834 3.508-7.834 7.835z" fill="#fff"/></svg>