<svg xmlns="http://www.w3.org/2000/svg" width="80" height="81" fill="none" xmlns:v="https://vecta.io/nano"><path fill-rule="evenodd" d="M80 11.869v12.738c-.01 5.785-4.197 10.716-9.904 11.663v39.763H78a2 2 0 1 1 0 4H2a2 2 0 1 1 0-4h7.765V36.249A11.85 11.85 0 0 1 0 24.607V11.869C-.012 7.633 2.241 3.713 5.907 1.591s8.188-2.122 11.854 0 5.92 6.041 5.907 10.278v12.738c-.01 5.785-4.197 10.716-9.904 11.663v39.763h3.163v-29.44a2 2 0 0 1 .986-1.724l21.071-12.397a2 2 0 0 1 2.028 0L62.087 44.87a2 2 0 0 1 .986 1.724v29.44h3.023V36.249a11.85 11.85 0 0 1-9.765-11.642V11.869C56.331 5.333 61.63.034 68.166.034S80 5.333 80 11.869zm-76 0v12.738c.006 3.526 2.365 6.614 5.765 7.548v-7.127l-3.581-3.581a2 2 0 0 1 2.828-2.828l.753.753v-8.015a2 2 0 1 1 4 0v2.002l.511-.514a2 2 0 0 1 3.376.874 2 2 0 0 1-.54 1.946l-3.347 3.367v13.159a7.84 7.84 0 0 0 5.904-7.585V11.869c.01-2.806-1.481-5.402-3.909-6.808s-5.423-1.406-7.851 0S3.99 9.063 4 11.869zm16.927 35.868L40 36.516l19.073 11.221v28.297h-16.9v-13.62a2 2 0 1 0-4 0v13.62H20.927V47.737zm39.404-35.868v12.738c.006 3.526 2.365 6.614 5.765 7.548v-7.127l-3.58-3.58a2 2 0 0 1 .886-3.368 2 2 0 0 1 1.943.54l.752.752v-8.015a2 2 0 1 1 4 0v2.002l.511-.514a2 2 0 0 1 3.377.873 2 2 0 0 1-.541 1.947l-3.347 3.367v13.159A7.84 7.84 0 0 0 76 24.607V11.869c0-4.327-3.508-7.834-7.835-7.834s-7.834 3.508-7.834 7.835z" fill="#fff"/></svg>