<svg xmlns="http://www.w3.org/2000/svg" width="80" height="80" fill="none" xmlns:v="https://vecta.io/nano"><path d="M63.072 76H78a2 2 0 1 1 0 4H2a2 2 0 1 1 0-4h14.928V46.56a2 2 0 0 1 .985-1.724l21.072-12.397a2 2 0 0 1 2.029 0l21.072 12.398a2 2 0 0 1 .985 1.724V76zM40 36.482L20.928 47.703V76h17.245V62.38a2 2 0 1 1 4 0V76h16.899V47.703L40 36.482zM25.33 16.38a8.95 8.95 0 0 1-8.95 8.95 8.96 8.96 0 0 1-8.95-8.95 8.95 8.95 0 1 1 17.9 0zm-4 .001a4.95 4.95 0 0 0-4.95-4.95v-.001c-2.733.003-4.947 2.218-4.95 4.951a4.95 4.95 0 1 0 9.9 0z" fill-rule="evenodd" fill="#fff"/><path d="M27.872 25.044a2 2 0 1 0-2.824 2.832l.188.187a2 2 0 1 0 2.825-2.832l-.188-.187zM26.46 8.3a1.99 1.99 0 0 0 1.412-.584l.188-.187a2 2 0 1 0-2.824-2.832l-.187.187A2 2 0 0 0 26.46 8.3zm4.184 10.08h.115a2 2 0 0 0 0-4h-.115a2 2 0 1 0 0 4h0zM16.38 4.115a2 2 0 0 0 2-2V2a2 2 0 1 0-4 0v.115a2 2 0 0 0 2 2zM2 18.38h.115a2 2 0 0 0 0-4H2a2 2 0 1 0 0 4zM4.888 7.716a2 2 0 1 0 2.825-2.832l-.187-.187a2 2 0 1 0-2.825 2.832l.188.187zm9.492 22.929v.116a2 2 0 1 0 4 0v-.115a2 2 0 1 0-4 0h0zm-9.492-5.601l-.188.187a2 2 0 1 0 2.824 2.832l.188-.187a2 2 0 1 0-2.824-2.832h0z" fill="#fff"/></svg>