<svg xmlns="http://www.w3.org/2000/svg" width="80" height="80" fill="none" xmlns:v="https://vecta.io/nano"><path d="M63.072 75.65H78a2 2 0 1 1 0 4H2a2 2 0 1 1 0-4h14.927V46.21a2 2 0 0 1 .986-1.724l21.073-12.397a2 2 0 0 1 2.028 0l21.071 12.398a2 2 0 0 1 .986 1.724v29.44zM40 36.132L20.927 47.353V75.65h17.246V62.03a2 2 0 1 1 4 0v13.62h16.9V47.353L40 36.132zM80 16.17c0 8.93-7.24 16.17-16.17 16.17a16.19 16.19 0 0 1-16.17-16.17C47.66 7.24 54.9 0 63.83 0S80 7.24 80 16.17zm-4 0C76 9.449 70.552 4 63.83 4v-.001c-6.719.007-12.163 5.452-12.17 12.171 0 6.721 5.449 12.17 12.17 12.17S76 22.891 76 16.17z" fill-rule="evenodd" fill="#fff"/><path d="M60.335 14.411a2 2 0 0 0 2-2c-.006-.538.277-1.038.742-1.309s1.04-.271 1.505 0 .749.771.743 1.309c0 .303-.059.543-.863 1.091a5.26 5.26 0 0 0-2.632 4.446v.442a2 2 0 1 0 4 0v-.442c0-.36.089-.591.897-1.148a5.22 5.22 0 0 0 2.599-4.389c.012-1.971-1.033-3.798-2.738-4.787s-3.809-.989-5.514 0-2.75 2.815-2.738 4.787a2 2 0 0 0 2 2zm3.504 7.012h-.019a2.01 2.01 0 0 0-2 2.014 2.01 2.01 0 0 0 2.009 2.005 2.01 2.01 0 0 0 2.009-2.005 2.01 2.01 0 0 0-2-2.014h0z" fill="#fff"/></svg>